<svg width="21" height="26" viewBox="0 0 21 26" fill="none" xmlns="http://www.w3.org/2000/svg">
<path d="M7.55882 0.940918C6.85294 0.940918 6.38235 1.44092 6.38235 2.19092V24.6909C6.38235 25.4409 6.85294 25.9409 7.55882 25.9409C8.26471 25.9409 8.73529 25.4409 8.73529 24.6909V2.19092C8.73529 1.44092 8.26471 0.940918 7.55882 0.940918ZM1.67647 13.4409C0.970588 13.4409 0.5 13.9409 0.5 14.6909V24.6909C0.5 25.4409 0.970588 25.9409 1.67647 25.9409C2.38235 25.9409 2.85294 25.4409 2.85294 24.6909V14.6909C2.85294 13.9409 2.38235 13.4409 1.67647 13.4409ZM13.4412 8.44092C12.7353 8.44092 12.2647 8.94092 12.2647 9.69092V24.6909C12.2647 25.4409 12.7353 25.9409 13.4412 25.9409C14.1471 25.9409 14.6176 25.4409 14.6176 24.6909V9.69092C14.6176 8.94092 14.1471 8.44092 13.4412 8.44092ZM19.3235 18.4409C18.6176 18.4409 18.1471 18.9409 18.1471 19.6909V24.6909C18.1471 25.4409 18.6176 25.9409 19.3235 25.9409C20.0294 25.9409 20.5 25.4409 20.5 24.6909V19.6909C20.5 18.9409 20.0294 18.4409 19.3235 18.4409Z" fill="#B8B8B8" stroke="black" stroke-width="0.00064"/>
</svg>
