<svg width="21" height="26" viewBox="0 0 21 26" fill="none" xmlns="http://www.w3.org/2000/svg">
<path fill-rule="evenodd" clip-rule="evenodd" d="M16.0381 18.1635H20.0381V16.608H16.0381V18.1635ZM18.7048 8.8306H0.0380859V24.3854C0.0380859 25.2441 0.635419 25.9409 1.37142 25.9409H18.7048C19.4408 25.9409 20.0381 25.2441 20.0381 24.3854V19.719H15.3714C15.0034 19.719 14.7048 19.3713 14.7048 18.9412V15.8303C14.7048 15.401 15.0034 15.0525 15.3714 15.0525H20.0381V10.3861C20.0381 9.52746 19.4408 8.8306 18.7048 8.8306ZM18.7048 1.83092C18.7048 1.40083 18.5474 1.16283 18.2048 1.00495C17.9408 0.882846 17.6841 0.955963 17.3714 1.05318L0.0380859 7.27512H18.7048V1.83092Z" fill="#B8B8B8"/>
</svg>
